<svg width="250" height="75" viewBox="0 0 239 75" fill="none" xmlns="http://www.w3.org/2000/svg">
<path d="M20.5332 18.25C21.4332 18.25 22.1999 18.3833 22.8332 18.65C23.4999 18.9167 24.0665 19.2833 24.5332 19.75C25.0332 20.1833 25.4499 20.7167 25.7832 21.35C26.1499 21.9833 26.4832 22.6833 26.7832 23.45L40.8332 58.1C40.9665 58.4333 41.0332 58.7167 41.0332 58.95C41.0332 59.2833 40.9165 59.55 40.6832 59.75C40.4832 59.95 40.2165 60.05 39.8832 60.05H34.5332C33.8332 60.05 33.3499 59.6833 33.0832 58.95L20.6332 27.9H20.4332L13.9332 44.25H20.1332C20.7999 44.25 21.2832 44.5833 21.5832 45.25C21.6832 45.4833 21.8332 45.85 22.0332 46.35C22.2665 46.8167 22.4832 47.3 22.6832 47.8C22.9165 48.3 23.0999 48.7833 23.2332 49.25C23.3999 49.6833 23.4832 50.0167 23.4832 50.25C23.4832 50.7167 23.3332 51.1 23.0332 51.4C22.7332 51.7 22.3499 51.85 21.8832 51.85H10.9332L8.0832 59C7.81654 59.7 7.34987 60.05 6.6832 60.05H1.1832C0.416536 60.05 0.0332031 59.6833 0.0332031 58.95C0.0332031 58.6167 0.0832031 58.3333 0.183203 58.1L14.1332 23.45C14.7332 21.95 15.5165 20.7167 16.4832 19.75C17.4499 18.75 18.7999 18.25 20.5332 18.25ZM72.134 18.25C72.434 18.25 72.7173 18.3667 72.984 18.6C73.284 18.8 73.384 19.0333 73.284 19.3L59.184 54.8C58.884 55.5333 58.534 56.2167 58.134 56.85C57.7673 57.4833 57.334 58.05 56.834 58.55C56.334 59.0167 55.7507 59.3833 55.084 59.65C54.4173 59.9167 53.6507 60.05 52.784 60.05C51.384 60.05 50.1673 59.6167 49.134 58.75C48.134 57.8833 47.3673 56.8167 46.834 55.55L32.284 19.3C32.1507 19 32.2173 18.75 32.484 18.55C32.7507 18.35 33.0507 18.25 33.384 18.25H38.784C39.2173 18.25 39.5173 18.3333 39.684 18.5C39.8507 18.6667 40.0173 18.9333 40.184 19.3L52.684 50.35V50.4L52.884 50.35L65.184 19.3C65.3173 19 65.5007 18.75 65.734 18.55C66.0007 18.35 66.3007 18.25 66.634 18.25H72.134ZM107.223 18.8C107.423 18.8 107.706 18.9 108.073 19.1C108.44 19.3 108.623 19.7833 108.623 20.55V24.45C108.623 25.2167 108.44 25.7 108.073 25.9C107.706 26.1 107.423 26.2 107.223 26.2H78.473C78.273 26.2 77.9897 26.1167 77.623 25.95C77.2897 25.75 77.123 25.2667 77.123 24.5V20.6C77.123 19.8 77.2897 19.3 77.623 19.1C77.9897 18.9 78.273 18.8 78.473 18.8H107.223ZM84.623 48.05C84.623 49.75 85.0564 50.9333 85.923 51.6C86.823 52.2667 88.0397 52.6 89.573 52.6H107.173C107.706 52.6 108.073 52.7667 108.273 53.1C108.506 53.4333 108.623 53.8333 108.623 54.3V58.3C108.623 58.7667 108.506 59.1667 108.273 59.5C108.073 59.8333 107.706 60 107.173 60H89.423C87.023 60 85.023 59.6667 83.423 59C81.8564 58.3 80.6064 57.3167 79.673 56.05C78.7397 54.7833 78.073 53.2667 77.673 51.5C77.3064 49.7 77.123 47.7 77.123 45.5V38.9C77.123 38.5 77.1897 38.1 77.323 37.7C77.4564 37.2667 77.673 36.9 77.973 36.6C78.3064 36.2667 78.723 36 79.223 35.8C79.7564 35.6 80.4064 35.5 81.173 35.5H106.973C107.473 35.5 107.823 35.6667 108.023 36C108.256 36.3333 108.373 36.7333 108.373 37.2V41.15C108.373 41.6167 108.256 42.0333 108.023 42.4C107.823 42.7333 107.473 42.9 106.973 42.9H84.623V48.05ZM137.907 42.85C138.107 43.15 138.457 43.7333 138.957 44.6C139.457 45.4333 140.041 46.4167 140.707 47.55C141.374 48.65 142.057 49.8167 142.757 51.05C143.491 52.25 144.157 53.4 144.757 54.5C145.391 55.5667 145.891 56.4833 146.257 57.25C146.657 57.9833 146.857 58.45 146.857 58.65C146.857 59.0167 146.774 59.3333 146.607 59.6C146.441 59.8667 146.141 60 145.707 60H140.207C139.807 60 139.491 59.9333 139.257 59.8C139.024 59.6333 138.807 59.3667 138.607 59L129.557 43H119.007V58.25C119.007 58.7167 118.891 59.1333 118.657 59.5C118.457 59.8333 118.107 60 117.607 60H113.057C112.557 60 112.191 59.8333 111.957 59.5C111.724 59.1333 111.607 58.7167 111.607 58.25V37.3C111.607 36.8333 111.707 36.4333 111.907 36.1C112.141 35.7667 112.524 35.6 113.057 35.6H134.807C135.574 35.6 136.174 35.4833 136.607 35.25C137.074 34.9833 137.424 34.6333 137.657 34.2C137.891 33.7667 138.041 33.2667 138.107 32.7C138.207 32.1333 138.257 31.5333 138.257 30.9C138.257 30.2667 138.207 29.6667 138.107 29.1C138.041 28.5333 137.891 28.0333 137.657 27.6C137.424 27.1667 137.074 26.8333 136.607 26.6C136.174 26.3333 135.574 26.2 134.807 26.2H113.057C112.524 26.2 112.141 26.0333 111.907 25.7C111.707 25.3667 111.607 24.9667 111.607 24.5V20.55C111.607 20.0833 111.707 19.6833 111.907 19.35C112.141 18.9833 112.524 18.8 113.057 18.8H136.107C138.007 18.8 139.574 19.1167 140.807 19.75C142.041 20.3833 143.007 21.25 143.707 22.35C144.441 23.45 144.957 24.7333 145.257 26.2C145.557 27.6667 145.707 29.2333 145.707 30.9C145.707 32.3 145.591 33.6833 145.357 35.05C145.157 36.3833 144.757 37.6 144.157 38.7C143.591 39.7667 142.807 40.6833 141.807 41.45C140.807 42.1833 139.507 42.65 137.907 42.85ZM173.342 18.8C175.942 18.8 178.042 19.2 179.642 20C181.275 20.7667 182.542 21.85 183.442 23.25C184.342 24.6167 184.942 26.2667 185.242 28.2C185.542 30.1 185.692 32.1833 185.692 34.45V44.35C185.692 46.6167 185.542 48.7167 185.242 50.65C184.942 52.55 184.342 54.2 183.442 55.6C182.575 57 181.325 58.1 179.692 58.9C178.092 59.6667 175.975 60.05 173.342 60.05H161.142C158.542 60.05 156.425 59.65 154.792 58.85C153.192 58.05 151.942 56.95 151.042 55.55C150.175 54.15 149.592 52.5 149.292 50.6C148.992 48.6667 148.842 46.5833 148.842 44.35V34.45C148.842 32.2167 148.992 30.15 149.292 28.25C149.592 26.3167 150.192 24.65 151.092 23.25C151.992 21.85 153.242 20.7667 154.842 20C156.442 19.2 158.542 18.8 161.142 18.8H173.342ZM178.242 33.6C178.242 32.5667 178.208 31.6 178.142 30.7C178.075 29.8 177.875 29.0167 177.542 28.35C177.242 27.6833 176.742 27.1667 176.042 26.8C175.342 26.4 174.358 26.2 173.092 26.2H161.392C160.158 26.2 159.192 26.4 158.492 26.8C157.792 27.1667 157.275 27.6833 156.942 28.35C156.608 29.0167 156.408 29.8 156.342 30.7C156.275 31.6 156.242 32.5667 156.242 33.6V45.25C156.242 46.2833 156.275 47.25 156.342 48.15C156.408 49.05 156.608 49.8333 156.942 50.5C157.275 51.1333 157.792 51.65 158.492 52.05C159.192 52.4167 160.158 52.6 161.392 52.6H173.092C174.358 52.6 175.342 52.4167 176.042 52.05C176.742 51.65 177.242 51.1333 177.542 50.5C177.875 49.8333 178.075 49.05 178.142 48.15C178.208 47.25 178.242 46.2833 178.242 45.25V33.6ZM224.586 18.8C225.086 18.8 225.436 18.9833 225.636 19.35C225.869 19.6833 225.986 20.0833 225.986 20.55V53.55C225.986 54.3167 225.936 55.0833 225.836 55.85C225.736 56.6167 225.486 57.3167 225.086 57.95C224.719 58.55 224.152 59.05 223.386 59.45C222.619 59.8167 221.552 60 220.186 60C219.286 60 218.486 59.9833 217.786 59.95C217.086 59.9167 216.436 59.7833 215.836 59.55C215.269 59.3167 214.736 58.95 214.236 58.45C213.736 57.95 213.236 57.25 212.736 56.35L196.736 28.15H196.486V58.25C196.486 58.7167 196.369 59.1333 196.136 59.5C195.936 59.8333 195.586 60 195.086 60H190.636C190.136 60 189.769 59.8333 189.536 59.5C189.302 59.1333 189.186 58.7167 189.186 58.25V25.25C189.186 24.45 189.219 23.6667 189.286 22.9C189.386 22.1333 189.586 21.45 189.886 20.85C190.186 20.25 190.619 19.7667 191.186 19.4C191.752 19 192.519 18.8 193.486 18.8H197.236C198.069 18.8 198.736 18.8667 199.236 19C199.769 19.1333 200.202 19.35 200.536 19.65C200.902 19.9167 201.236 20.2833 201.536 20.75C201.836 21.2167 202.169 21.7833 202.536 22.45L218.486 50.65H218.736V20.55C218.736 20.0833 218.836 19.6833 219.036 19.35C219.236 18.9833 219.602 18.8 220.136 18.8H224.586Z" fill="white"/>
<path d="M238.867 22.1797H238.008V19.1016L237 21.7109H236.391L235.383 19.1016V22.1797H234.516V17.8047H235.75L236.695 20.3672L237.641 17.8047H238.867V22.1797ZM233.766 18.6875H232.391V22.1797H231.508V18.6875H230.133V17.8047H233.766V18.6875Z" fill="white"/>
</svg>
